<svg xmlns="http://www.w3.org/2000/svg" width="256" height="256" viewBox="0 0 100 100"><rect width="100" height="100" rx="20" fill="#5a65af"></rect><path fill="#fff" d="M72.99 87.13L72.99 87.13Q68.77 87.13 64.27 86Q59.77 84.88 54.32 82.00Q48.88 79.11 42.03 73.80L42.03 73.80Q34.38 72.72 28.40 68.58Q22.41 64.44 19.04 57.96Q15.66 51.48 15.66 43.47L15.66 43.47Q15.66 36.81 18.00 31.23Q20.34 25.66 24.53 21.56Q28.71 17.46 34.38 15.17Q40.05 12.88 46.72 12.88L46.72 12.88Q53.47 12.88 59.13 15.17Q64.80 17.46 68.99 21.56Q73.17 25.66 75.51 31.23Q77.85 36.81 77.85 43.47L77.85 43.47Q77.85 50.49 75.24 56.34Q72.63 62.19 67.95 66.38Q63.27 70.56 57.06 72.55L57.06 72.55Q64.53 78.84 69.48 81.14Q74.44 83.44 78.39 83.44L78.39 83.44Q80.38 83.44 81.86 83.16Q83.34 82.89 84.33 82.63L84.33 82.63L84.33 84.69Q82.35 85.69 79.56 86.41Q76.77 87.13 72.99 87.13ZM48.16 69.39L48.16 69.39Q52.66 69.39 56.12 66.52Q59.58 63.63 61.52 58.41Q63.45 53.19 63.45 46.17L63.45 46.17Q63.45 37.53 61.07 31.05Q58.69 24.57 54.63 21.02Q50.58 17.46 45.55 17.46L45.55 17.46Q41.05 17.46 37.53 20.30Q34.02 23.13 32 28.35Q29.97 33.57 29.97 40.59L29.97 40.59Q29.97 49.23 32.41 55.71Q34.83 62.19 38.97 65.80Q43.11 69.39 48.16 69.39Z"></path></svg>